<?xml version="1.0" encoding="UTF-8" standalone="no"?>
<svg width="505px" height="505px" viewBox="0 0 505 505" version="1.1" xmlns="http://www.w3.org/2000/svg" xmlns:xlink="http://www.w3.org/1999/xlink">
    <!-- Generator: Sketch 3.7.2 (28276) - http://www.bohemiancoding.com/sketch -->
    <title>icon-about-contact</title>
    <desc>Created with Sketch.</desc>
    <defs></defs>
    <g id="Page-1" stroke="none" stroke-width="1" fill="none" fill-rule="evenodd">
        <g id="icon-about-contact" transform="translate(15.000000, 15.000000)">
            <circle id="Oval" stroke="#979797" stroke-width="30" fill="#FFFFFF" cx="237.5" cy="237.5" r="237.5"></circle>
            <g id="Group-2" transform="translate(95.000000, 147.000000)" fill="#979797">
                <path d="M71.3347403,83.2596333 C72.6273756,76.9998833 74.5691882,70.9716583 77.120141,65.2635667 L29.5443007,17.0777833 L255.978533,17.0777833 L211.090916,62.5710167 C213.112803,68.9222333 214.219551,75.7908083 214.219551,83.050975 L214.219551,83.2367667 L282.24591,14.6024667 C284.659592,12.1986083 285.374545,8.57995833 284.07619,5.44150833 C282.769256,2.308775 279.709256,0.245058333 276.2975,0.245058333 L9.21389384,0.245058333 C5.82501606,0.245058333 2.75357747,2.31163333 1.44950298,5.44150833 C0.151148121,8.57995833 0.868961052,12.1986083 3.2883624,14.6024667 L71.3347403,83.2596333 L71.3347403,83.2596333 Z" id="Shape"></path>
                <path d="M284.936994,32.3784417 L268.344362,48.9510583 L268.344362,164.930792 L17.1756118,164.930792 L17.1756118,49.1597167 L0.488605993,32.4984917 C0.414250869,32.94725 0.348475182,33.4045833 0.348475182,33.8590583 L0.348475182,173.351442 C0.348475182,175.572367 1.24359649,177.733267 2.81649334,179.296775 C4.38081077,180.854567 6.54568881,181.752083 8.7677631,181.752083 L276.75507,181.752083 C278.968565,181.752083 281.139163,180.854567 282.70062,179.296775 C284.267798,177.733267 285.165779,175.572367 285.165779,173.351442 L285.165779,34.2963833 C285.165779,33.6275333 285.077124,32.9844083 284.936994,32.3784417 L284.936994,32.3784417 Z" id="Shape"></path>
                <path d="M172.434831,62.9111583 C167.910608,60.6473583 160.25489,58.91235 152.590592,58.91235 C127.878953,58.91235 111.520825,78.3976083 111.520825,99.7865167 C111.520825,113.709458 120.048786,122.055792 130.841718,122.055792 C140.585099,122.055792 148.412406,117.365267 154.166349,107.786992 L154.678255,107.786992 C155.030012,117.713983 161.118553,122.055792 168.78571,122.055792 C186.353538,122.055792 200.798451,106.394983 200.798451,80.65855 C200.798451,51.6007333 179.744512,30.3718917 149.11592,30.3718917 C110.119517,30.3718917 84.7100833,61.167575 84.7100833,96.831 C84.7100833,130.756558 109.596171,151.636683 138.322988,151.636683 C150.33134,151.636683 159.734404,149.890242 169.826682,145.016783 L166.875355,136.141658 C159.905992,139.797467 150.500069,141.898342 141.111305,141.898342 C115.350114,141.898342 96.5525667,124.671167 96.5525667,95.6247833 C96.5525667,61.339075 120.051646,39.77295 147.551603,39.77295 C174.531073,39.77295 189.319164,57.514625 189.319164,81.5217667 C189.319164,101.524383 179.744512,112.14595 171.562588,111.794375 C166.34629,111.794375 164.776253,106.394983 166.872496,94.7444167 L172.434831,62.9111583 L172.434831,62.9111583 Z M153.980461,89.5222417 C152.238835,99.7865167 144.411528,110.239442 136.232465,110.239442 C129.792167,110.239442 126.480504,105.360267 126.480504,98.22015 C126.480504,83.4425667 136.927399,70.565775 150.154032,70.565775 C153.111078,70.565775 155.376049,71.0945667 157.123395,71.6147833 L153.980461,89.5222417 L153.980461,89.5222417 Z" id="Shape"></path>
            </g>
        </g>
    </g>
</svg>